HIERARCHY
ROOT Hips
{
	OFFSET 0.000000 0.000000 0.000000
	CHANNELS 6 Xposition Yposition Zposition Xrotation Yrotation Zrotation
	JOINT LeftUpLeg_virtual
	{
		OFFSET 0.000000 0.000000 0.000000
		CHANNELS 3 Xrotation Yrotation Zrotation
		JOINT LeftUpLeg
		{
			OFFSET 11.394100 -6.187798 -0.413800
			CHANNELS 3 Xrotation Yrotation Zrotation
			JOINT LeftLeg
			{
				OFFSET 0.430247 -32.302673 3.732800
				CHANNELS 3 Xrotation Yrotation Zrotation
				JOINT LeftFoot
				{
					OFFSET -0.430247 -48.264931 -6.423300
					CHANNELS 3 Xrotation Yrotation Zrotation
					JOINT LeftToeBase
					{
						OFFSET 4.230900 -16.068199 23.438400
						CHANNELS 3 Xrotation Yrotation Zrotation
						JOINT LeftToe_End
						{
							OFFSET 4.510700 0.695400 19.974600
							CHANNELS 3 Xrotation Yrotation Zrotation
							End Site
							{
								OFFSET 0 0 0
							}
						}
					}
				}
			}
		}
	}
	JOINT RightUpLeg_virtual
	{
		OFFSET 0.000000 0.000000 0.000000
		CHANNELS 3 Xrotation Yrotation Zrotation
		JOINT RightUpLeg
		{
			OFFSET -11.333700 -6.187798 -0.413800
			CHANNELS 3 Xrotation Yrotation Zrotation
			JOINT RightLeg
			{
				OFFSET -0.430392 -32.302628 3.733000
				CHANNELS 3 Xrotation Yrotation Zrotation
				JOINT RightFoot
				{
					OFFSET 0.430392 -48.264973 -6.423500
					CHANNELS 3 Xrotation Yrotation Zrotation
					JOINT RightToeBase
					{
						OFFSET -4.230900 -16.068199 23.438400
						CHANNELS 3 Xrotation Yrotation Zrotation
						JOINT RightToe_End
						{
							OFFSET -4.510700 0.695400 19.974600
							CHANNELS 3 Xrotation Yrotation Zrotation
							End Site
							{
								OFFSET 0 0 0
							}
						}
					}
				}
			}
		}
	}
	JOINT Spine_virtual
	{
		OFFSET 0.000000 0.000000 0.000000
		CHANNELS 3 Xrotation Yrotation Zrotation
		JOINT Spine
		{
			OFFSET -0.002400 12.777504 0.315300
			CHANNELS 3 Xrotation Yrotation Zrotation
			JOINT Spine1
			{
				OFFSET -0.002067 5.816869 0.032633
				CHANNELS 3 Xrotation Yrotation Zrotation
				JOINT Spine1_split
				{
					OFFSET -0.002067 5.816869 0.032633
					CHANNELS 3 Xrotation Yrotation Zrotation
					JOINT Spine2
					{
						OFFSET -0.002067 5.816869 0.032633
						CHANNELS 3 Xrotation Yrotation Zrotation
						JOINT Neck_virtual
						{
							OFFSET 0.000000 0.000000 0.000000
							CHANNELS 3 Xrotation Yrotation Zrotation
							JOINT Neck
							{
								OFFSET -0.003700 21.199493 -0.826900
								CHANNELS 3 Xrotation Yrotation Zrotation
								JOINT Head
								{
									OFFSET 0.000000 20.442200 4.834800
									CHANNELS 3 Xrotation Yrotation Zrotation
									JOINT HeadTop_End
									{
										OFFSET 0.000000 34.668396 4.968400
										CHANNELS 3 Xrotation Yrotation Zrotation
										End Site
										{
											OFFSET 0 0 0
										}
									}
								}
							}
						}
						JOINT LeftShoulder_virtual
						{
							OFFSET 0.000000 0.000000 0.000000
							CHANNELS 3 Xrotation Yrotation Zrotation
							JOINT LeftShoulder
							{
								OFFSET 3.288150 8.794197 -1.372250
								CHANNELS 3 Xrotation Yrotation Zrotation
								JOINT LeftShoulder_split
								{
									OFFSET 3.288150 8.794197 -1.372250
									CHANNELS 3 Xrotation Yrotation Zrotation
									JOINT LeftArm
									{
										OFFSET 11.953299 -2.279007 -0.146200
										CHANNELS 3 Xrotation Yrotation Zrotation
										JOINT LeftForeArm
										{
											OFFSET 18.448900 0.000000 0.000000
											CHANNELS 3 Xrotation Yrotation Zrotation
											JOINT LeftHand
											{
												OFFSET 29.527798 0.000000 0.000000
												CHANNELS 3 Xrotation Yrotation Zrotation
												End Site
												{
													OFFSET 0 0 0
												}
											}
										}
									}
								}
							}
						}
						JOINT RightShoulder_virtual
						{
							OFFSET 0.000000 0.000000 0.000000
							CHANNELS 3 Xrotation Yrotation Zrotation
							JOINT RightShoulder
							{
								OFFSET -3.249400 8.794197 -1.372250
								CHANNELS 3 Xrotation Yrotation Zrotation
								JOINT RightShoulder_split
								{
									OFFSET -3.249400 8.794197 -1.372250
									CHANNELS 3 Xrotation Yrotation Zrotation
									JOINT RightArm
									{
										OFFSET -11.953299 -2.279007 -0.146200
										CHANNELS 3 Xrotation Yrotation Zrotation
										JOINT RightForeArm
										{
											OFFSET -18.448900 0.000000 0.000000
											CHANNELS 3 Xrotation Yrotation Zrotation
											JOINT RightHand
											{
												OFFSET -29.527802 0.000000 0.000000
												CHANNELS 3 Xrotation Yrotation Zrotation
												End Site
												{
													OFFSET 0 0 0
												}
											}
										}
									}
								}
							}
						}
					}
				}
			}
		}
	}
}
MOTION
Frames: 4
Frame Time: 0.03333333
7.714358 66.325867 119.978302 0.000000 0.000000 0.000000 21.774315 -60.456975 31.148053 -82.053364 -40.620310 25.808247 88.756102 8.581350 -38.066277 8.229360 -2.701342 -18.626329 2.327008 0.353104 -3.485004 0.000000 0.000000 0.000000 19.211027 -59.078944 30.891382 -92.374012 24.959127 -15.690609 99.023987 4.878568 -0.945175 -17.872665 -1.899322 15.918663 5.213077 -0.407488 1.608347 0.000000 0.000000 0.000000 17.652086 -61.000351 27.335971 35.688958 -1.485585 -10.874254 0.847979 4.994026 -1.293484 1.257579 -1.813017 1.408994 0.000000 0.000000 0.000000 1.169356 5.735481 -0.583651 -13.370736 18.583973 -1.964401 4.415428 22.725812 -19.434103 0.000000 0.000000 0.000000 4.561009 5.462697 -0.795651 3.645365 -18.779523 -3.900371 -4.596291 0.574675 -3.102831 -20.407572 23.113053 -24.486875 -50.840155 -79.179398 -41.270919 0.000000 0.000000 0.000000 4.368721 5.975954 -0.756512 -2.038587 30.889681 20.263634 3.319443 6.408550 -0.586156 -50.292018 -5.631340 19.281327 -34.661301 58.130258 29.709066 0.000000 0.000000 0.000000 
8.318121 66.791176 120.756210 0.000000 0.000000 0.000000 23.027358 -58.213299 30.890661 -84.156830 -41.135928 25.216143 91.273259 8.716599 -40.881646 6.038452 -2.163068 -17.832927 1.365118 0.186025 -1.016093 0.000000 0.000000 0.000000 20.540150 -58.128735 30.719684 -92.539576 25.157605 -17.193968 97.678358 4.907546 -0.255242 -19.677285 -4.035298 17.410188 7.945289 0.274798 1.427929 0.000000 0.000000 0.000000 18.255504 -58.846711 26.471093 37.629688 -2.165866 -11.914382 0.619482 4.870412 -0.994126 1.195774 -1.960434 1.352093 0.000000 0.000000 0.000000 1.046489 5.471254 -0.064478 -14.365268 19.447299 -1.871560 2.020548 22.345077 -17.636257 0.000000 0.000000 0.000000 4.560913 5.282942 -0.403643 4.767591 -18.794712 -2.971017 -5.276142 0.035084 -3.488793 -20.392288 19.009583 -25.430842 -29.730837 -75.442322 -21.447812 0.000000 0.000000 0.000000 4.119356 5.758144 -0.478979 -1.387948 30.281077 21.280083 5.012470 6.386581 0.474929 -53.038768 -3.148176 22.396906 -35.204199 59.363107 30.366850 0.000000 0.000000 0.000000 
8.631506 67.861183 121.002594 0.000000 0.000000 0.000000 24.145272 -56.660879 30.620756 -83.183317 -40.539010 25.576733 92.063314 9.085252 -42.050872 4.352152 -2.239540 -16.751872 -1.929068 -0.090565 1.234269 0.000000 0.000000 0.000000 22.166764 -57.641059 30.642606 -91.190074 24.450909 -18.547372 95.193849 4.707897 0.317422 -21.146850 -5.861390 18.160956 10.261816 1.037107 0.891896 0.000000 0.000000 0.000000 19.540309 -56.864873 26.023663 37.820673 -2.536063 -12.622060 0.518560 4.848096 -0.848887 1.175922 -2.359022 1.185434 0.000000 0.000000 0.000000 1.399445 5.367374 0.179152 -15.581608 20.105034 -1.377807 -0.420750 21.807508 -15.584931 0.000000 0.000000 0.000000 4.633289 5.221577 -0.159858 5.204794 -18.878848 -2.148334 -5.770996 -0.560391 -4.378285 -21.595825 15.060320 -25.735798 -19.668197 -71.279157 -12.363895 0.000000 0.000000 0.000000 4.027134 5.600059 -0.346219 -0.844401 28.807877 21.815544 6.519757 6.199103 1.260111 -56.558126 -2.985123 24.429625 -39.745018 63.430423 35.325441 0.000000 0.000000 0.000000 
8.751131 69.383926 121.018784 0.000000 0.000000 0.000000 24.776923 -56.221770 30.377635 -80.720938 -38.784635 26.526846 91.866017 9.302340 -41.796233 3.882906 -3.078471 -15.281148 -5.663705 -0.428022 2.809151 0.000000 0.000000 0.000000 23.659915 -57.712284 30.632056 -88.715367 23.237019 -19.507372 91.561288 4.465667 0.466002 -21.156390 -6.916681 18.864224 10.918880 1.659853 0.231659 0.000000 0.000000 0.000000 21.148902 -55.592098 26.026108 36.458785 -2.620623 -13.118631 0.632235 4.828499 -0.766293 1.181081 -2.904829 1.026310 0.000000 0.000000 0.000000 2.128948 5.318761 0.244465 -16.982789 20.596931 -0.729423 -2.723460 21.274151 -13.495008 0.000000 0.000000 0.000000 4.775252 5.210771 0.033423 4.918164 -19.204277 -1.524221 -5.974916 -0.847124 -5.286996 -23.427040 11.522147 -25.995247 -14.734369 -68.201167 -8.220467 0.000000 0.000000 0.000000 4.079706 5.440774 -0.237919 -0.469134 26.799907 21.939039 7.539854 5.996752 1.958412 -58.958172 -4.981008 25.679621 -49.606482 68.758148 45.790814 0.000000 0.000000 0.000000 
